<svg width="69" height="63" fill="none" xmlns="http://www.w3.org/2000/svg"><path d="M35.527 2.1a.878.878 0 0 0-.653-.375l-.43-.042c-.3-.083-6.77.023-8.287 1-.162-1.028-.514-2.268-2.286-2.647-1.249-.264-3.942.925-3.04 3.614a1.79 1.79 0 0 0 .926 1.013c.231.12.597.065.87.768.078.208.231.185.365.143.134-.041.125-.023.287.111a.208.208 0 0 0 .232.042.204.204 0 0 0 .148.056c.064 0 .212-.047.25 0 .513.411 1.11-.236 1.337-.644l.828 2.513c-.2-.171-2.235-.759-3.211.333-.852.925-1.472 2.216-2.189 4.405a1.768 1.768 0 0 1-1.254 1.143c-1.11.407-.462.925-.18.976a7.242 7.242 0 0 0 2.596-.102c.411-.204.106-1.152.564-1.74l1.013-1.309a4.317 4.317 0 0 1-.36 1.971c-.334.814-1.347 1.245-1.648 1.633-.532.685.69.74 1.014.63.81-.278 1.388-.264 1.725-.463.463-.268.135-.995.287-1.291.417-.824 1.851-2.623 2.013-2.91a.968.968 0 0 0 .06-.116 7.903 7.903 0 0 0 2.605.356c2.364-.282 2.892-1.952 2.651-3.239a5.488 5.488 0 0 0-1.198-2.313c-.634-1.009-.986-1.54-1.194-1.81.68-.161 4.442-1.198 4.456-1.165.143.305.463.375.574.463.245.134.384-.075.286-.135a.569.569 0 0 1-.23-.254 4.91 4.91 0 0 1 .818.06c.264.037.44-.55.255-.676z" fill="#0C419A"/><path fill-rule="evenodd" clip-rule="evenodd" d="M68.985 24.79c-.606-3.239-3.632-5.251-5.191-5.913a11.14 11.14 0 0 0-1.708-.592l-.518-.171c.111-.704.925-.76 1.416-1.763 1.388-2.85-1.462-4.859-3.572-4.396-.995.222-1.689.579-1.85 1.337-.084.412-.404.426-.926.972-.167.176.203.463.263.583 0 .032-.092.185-.13.356-.036.171 0 .144 0 .167a.818.818 0 0 0-.1.402 1.082 1.082 0 0 0 0 .977c.211.326.357.69.43 1.073 0 .088 0 .134-.39 0-.096-.028-3.914-1.152-4.34-1.439-.425-.287-4.256-4.423-4.672-5.228-.227-.463-.463-.736-.588-.727-.893.056.648 1.666-.218 1.115-.222-.143-.888-.61-.925-.647-.167-.135-.125-.07-.245-.264a1.222 1.222 0 0 0-.292-.38c-.097-.069-.157-.088-.226-.069-.07.018-.116.134-.149.143a.709.709 0 0 0-.152 0c-.222.056-.056.625 0 .889.215.6.484 1.18.805 1.73.967.667 1.92 1.226 1.952 1.263 1.041 1.208 2.263 2.721 3.355 3.868.87.926 4.84 3.24 4.974 3.3.259.157.67 1.004.079 7.065-.223 2.281-1.851 7.13-1.078 9.638a29.95 29.95 0 0 1 1.675 7.176c.129.995-.644 1.596-1.75 2.397-.43.315-1.642 1.064-1.767 1.175-.204.185 0 .463.25.592.329.17.67.314 1.022.43a2.878 2.878 0 0 0 1.879-.365c.805-.462.879-.527 1.351-.814.546-.329 1.203-.435 1.388-.99.227-.74-.398-1.8-.333-2.281.463-3.47 1.05-5.187.176-7.316-.176-.425 1.267-5.061 1.388-4.437.222 1.222.31 4.854.352 7.556 0 1.18.967 5.372 1.272 6.876.463 2.313-3.447 4.164-2.587 4.858.35.239.748.397 1.166.462a2.11 2.11 0 0 0 2.217-.874c.833-1.036.578-.75 1.235-1.49.57-.638.162-1.74.088-2.313-.148-1.18-.023-1.49-.032-3.61-.045-1.36.05-2.72.282-4.062.615-4.062.995-6.27 1.184-7.995v-.097s.297.106.426-.107c.141-.289.221-.604.236-.925.05-.227.144.065.144.065.093.237.16.483.198.735a4.102 4.102 0 0 1-.323 1c-.158.462.24.527.342.564a4.422 4.422 0 0 0 1.476-1.17c.122-.34.179-.7.166-1.06a15.873 15.873 0 0 0-.333-2.313c.37-1.199 1.356-4.146 1.208-4.956zm-2.776 4.683c-.13.578-.167.027-.713 2.17l.06-.306v-.925c0-2.656-2.03-8.328-.8-7.12 0 0 1.48 1.03 1.767 1.817.241.625.158 2.323-.314 4.364z" fill="#0C419A"/><path d="M16.708 35.812c-.463-.398-2.06-2.587-3.105-3.447a14.867 14.867 0 0 1-1.439-1.851c-1.892-2.522-2.313-2.665-3.627-2.887-.269-.18-.18-.39-.153-.398a1.652 1.652 0 0 0 1.134-2.198c-.08-.329.143-.463.138-.777a3.475 3.475 0 0 0-.25-1.245.926.926 0 0 0-.152-.889c-.926-1.166-3.239-1.221-4.428-.393-.963.666-.398 1.13-.699 2.073a1.457 1.457 0 0 0 .394 1.485c.046.315.994.926.81 1.592-.186.666-1.315.833-1.287.833-.12.027-.235.07-.342.13C1.934 28.847.222 30.314 0 31.93c.097 1.3 2.11 3.174 3.405 4.164.19 2.216 1.597 5.608 1.661 5.742.19.407-.397-.305-1.813-.787-.69-.231-1.597-1.17-1.79-.07-.084.464.115 1.26-.32 2.25-.329.754.055 1.961.888 1.938.602 0 .958-1.85.958-1.85s2.91 1.448 4.298.966c.81-.282.995-3.525.195-6.417-.283-1.013.523 1.652 2.466 3.998.43.518.05.925.333 2.854.08.41.112.828.097 1.245-.055.925-.948 2.04 1.092 2.563 2.04.523 1.911 1.023 3.216.148.583-.393-1.795-.633-2.258-2.04a1.851 1.851 0 0 1-.056-.305c-.055-1.11.463-3.702.296-4.572-.74-4.395-2.586-6.427-2.822-7.454 0-3.067-.222-4.03.07-3.34.391.71.838 1.39 1.337 2.03.07.089.152.181.24.278.165.197.35.374.556.528 1.281 1.12 3.322 2.457 3.595 2.748 0 0 .152 1.351.708 1.254.555-.097 2.947-1.161 2.9-1.43-.096-.5-2.46-.485-2.544-.56zM3.392 34.109c-.37-.713-1.389-2.036-1.315-2.254.565-.925 1.171-1.193 1.352-1.133.18.06-.037 3.387-.037 3.387z" fill="#0C419A"/><path d="M57.273 60.676c-.107-.056-1.546-.588-2.818-2.623-.569-.926-4.844-8.833-5.427-10.379-1.157-3.058-10.18-8.56-10.559-8.879-.268-.217-.236-.75-.134-1.096.759-2.573.463-4.877.606-5.224.37-.875.925-2.147.514-2.975l-.926-1.472s4.77 1.726 5.876 1.495c.954-.204 5.756-3.503 6.015-3.646.667-.338 2.263.162 3.878-1.596.606-.662.166-.889.055-.773a.412.412 0 0 0-.555-.148c-.384.217-1.712.601-1.467.42.963-.72.296-.925.296-.925-.42.348-2.336.833-2.706 1.139-.463.356-.727.661-.926.786a20.448 20.448 0 0 1-5.186 2.04c-.408.093-4.216-2.396-6.418-2.734a4.349 4.349 0 0 0-2.258.088c-.787.222-.726-.925-.143-1.189.305-.143.814-.236 1.004-.625a1.21 1.21 0 0 0-.037-.957.33.33 0 0 0-.033-.269c-.055-.134-.046-.064-.027-.199.018-.134-.06-.175-.093-.287a.411.411 0 0 1 .032-.254c.463-.389.264-.57.204-.625-.097-.12-.81-.425-.87-.888a5.436 5.436 0 0 0-.463-1.476c-.046-.139-.124-1-.504-1.347-.463-.42-1.439-.925-3.544-.37-.676.185-.55.51-2.244.824-2.022.375-3.137 3.382-2.957 4.627.148 1.009 1.014.518.977.967-.056.699-.13 1.85 1.35 2.281.32.093 2.259-.218 2.994-.088 0 0 .602.051.3.652-.147.297-2.09 1.065-2.567 1.268-1.277.528-4.54 5.881-5.525 6.385-.575.276-1.126.6-1.647.968-1.342.842-2.651 1.85-3.373 1.85-.962-.06-1.744.403-2.387 1.851-.19.426-.079.643.268.731a.82.82 0 0 0 .597.305c.287.269.61.098.856-.032.754-.412.925-.736 1.221-.856.736-.24 5.09-1.92 6.057-2.67 1.471-.805 4.433-3.845 5.09-3.877.601-.056 2.11 1.277 1.647 3.84-.162.875-1.254 2.453-1.85 3.373-1.204 1.823-.274 3.415-.51 3.799-1.244 2.031-2.776 4.747-5.358 7.07-1.004.652-3.123.8-4.243 1.129-2.572.754-5.312 2.6-7.269 3.701-.647.361-1.267-.416-2.082-.508-.814-.093-.884 1.138-1.3 2.253-.13.342-.185.504-.805 1.878-.245.537-.888 2.194-.24 2.878.592.824 1.998-1.758 3.086-3.016.578-.667.925-.884 2.179-1.171.796-.185 7.102-1.897 11.266-2.809.102 0 .213-.041.333-.074 5.41-1.388 11.017-8.467 11.105-8.434l9.185 4.552c.925.5.925 2.29 2.03 4.327.658 1.23 1.625 2.313 5.553 6.158.505.495.088 1.314.32 2.078.23.763.629.832 1.364.772.736-.06 1.3-.166 1.985-.213.875-.05.639.042 1.661.195.495.074 1.63.236 2.43-.56 1.42-1.434-1.541-.713-2.883-1.416z" fill="#0C419A"/><path d="M47.301 56.693a.55.55 0 0 0-.75-.246 28.224 28.224 0 0 1-26.836-.69.56.56 0 1 0-.56.968 29.357 29.357 0 0 0 27.892.722.556.556 0 0 0 .254-.754zM7.58 19.94a.56.56 0 0 1-.509-.791A29.228 29.228 0 0 1 19.015 5.925a.56.56 0 1 1 .564.963A28.137 28.137 0 0 0 8.094 19.612a.574.574 0 0 1-.513.328zM55.375 12.774a.55.55 0 0 1-.417-.19 28.224 28.224 0 0 0-17.184-9.253.561.561 0 0 1 .157-1.11 29.33 29.33 0 0 1 17.865 9.623.56.56 0 0 1-.421.926v.004z" fill="#0C419A"/></svg>