<?xml version="1.0" encoding="UTF-8"?>
<svg width="112px" height="112px" viewBox="0 0 112 112" version="1.1" xmlns="http://www.w3.org/2000/svg" xmlns:xlink="http://www.w3.org/1999/xlink">
    <title>Find an address</title>
    <g id="Find-an-address" stroke="none" stroke-width="1" fill="none" fill-rule="evenodd">
        <g id="Group-37">
            <polygon id="Fill-7" fill="#FFFFFF" opacity="0" points="0 112 112 112 112 0 0 0"></polygon>
            <g id="Group-9" transform="translate(17.000000, 15.000000)" fill="#D8291C">
                <path d="M23.1763474,29.257611 L11.536137,29.257611 C10.0682486,29.257611 8.8782946,30.4577873 8.8782946,31.9382856 C8.8782946,33.418784 10.0682486,34.6189603 11.536137,34.6189603 L23.1763474,34.6189603 C24.6442358,34.6189603 25.8341898,33.418784 25.8341898,31.9382856 C25.8341898,30.4577873 24.6442358,29.257611 23.1763474,29.257611" id="Fill-1"></path>
                <path d="M30.3180078,46.7158111 C30.3180078,51.5762573 26.3973107,55.5306353 21.5782628,55.5306353 L18.7100712,55.5306353 L13.296426,55.5306353 C8.47737806,55.5306353 4.55630119,51.5762573 4.55630119,46.7158111 L4.55630119,27.2472199 C4.55630119,26.5647967 4.98155597,25.3217295 5.39921692,24.7840628 L17.103975,9.71675636 L29.4693967,24.8610364 C29.8897155,25.375726 30.3180078,26.5801148 30.3180078,27.2472199 L30.3180078,46.7158111 Z M58.8400736,45.9744131 L58.8400736,46.7158111 C58.8400736,51.5762573 54.9189968,55.5306353 50.0999489,55.5306353 L31.585419,55.5306353 C33.6308185,53.1716416 34.874309,50.0884828 34.874309,46.7158111 L34.874309,27.3739775 L39.2517754,27.3739775 C38.8720836,25.8904155 38.6290809,24.3528571 38.5220078,22.7785352 L33.5579177,22.7785352 C33.3787032,22.4763848 33.1899964,22.1887867 32.9864816,21.939867 L22.7332851,9.38243794 L41.2630027,9.38243794 C42.0933886,7.76331044 43.0851435,6.24145313 44.227636,4.8475023 C43.9565361,4.80920695 43.6888534,4.78699565 43.4287645,4.78699565 L17.6165589,4.78699565 C17.4274724,4.7601889 17.2368671,4.74257304 17.0439837,4.74466981 C15.8468156,4.75942299 14.7145747,5.3411294 13.9388644,6.33987219 L1.81264849,21.9502067 C0.762421067,23.3020326 0,25.5300562 0,27.2472199 L0,46.7158111 C0,54.1102607 5.96457796,60.1260776 13.296426,60.1260776 L18.7100712,60.1260776 L21.5782628,60.1260776 L30.4247012,60.1260776 L30.4247012,79.7022789 C30.4247012,80.9710039 31.4445533,82 32.7028518,82 C33.9611503,82 34.9810024,80.9710039 34.9810024,79.7022789 L34.9810024,60.1260776 L50.0999489,60.1260776 C57.4314172,60.1260776 63.3963748,54.1102607 63.3963748,46.7158111 L63.3963748,46.4400846 C61.8400183,46.4236176 60.3170746,46.2646919 58.8400736,45.9744131 L58.8400736,45.9744131 Z" id="Fill-3"></path>
                <path d="M47.3778247,21.0214678 C47.3778247,11.964234 54.6838536,4.59544229 63.6643233,4.59544229 C72.6444133,4.59544229 79.9504422,11.964234 79.9504422,21.0214678 C79.9504422,30.0787016 72.6444133,37.4474933 63.6643233,37.4474933 C54.6838536,37.4474933 47.3778247,30.0787016 47.3778247,21.0214678 M94.3327866,48.7044122 L79.9151309,34.162518 C82.7840819,30.5604572 84.5067434,25.9910557 84.5067434,21.0214678 C84.5067434,9.43023054 75.1568337,0 63.6643233,0 C52.1714332,0 42.8215235,9.43023054 42.8215235,21.0214678 C42.8215235,32.6127051 52.1714332,42.0429356 63.6643233,42.0429356 C68.5915834,42.0429356 73.1216858,40.3058584 76.6930666,37.4118787 L91.111102,51.9537728 C91.5561008,52.4025944 92.1389276,52.6266222 92.7221342,52.6266222 C93.304961,52.6266222 93.8881676,52.4025944 94.3327866,51.9537728 C95.2224045,51.0565127 95.2224045,49.6016723 94.3327866,48.7044122" id="Fill-5"></path>
            </g>
        </g>
    </g>
</svg>