<?xml version="1.0" encoding="UTF-8"?>
<svg width="112px" height="112px" viewBox="0 0 112 112" version="1.1" xmlns="http://www.w3.org/2000/svg" xmlns:xlink="http://www.w3.org/1999/xlink">
    <title>Find a Rate</title>
    <g id="Find-a-Rate" stroke="none" stroke-width="1" fill="none" fill-rule="evenodd">
        <g id="Group-40">
            <polygon id="Fill-5" fill="#FFFFFF" opacity="0" points="0 112 112 112 112 0 0 0"></polygon>
            <g id="Group-39" transform="translate(23.000000, 22.000000)" fill="#D8291C">
                <path d="M42.8019011,40.6585669 C42.8019011,43.0036772 40.8937902,44.9117902 38.5486826,44.9117902 L35.9892333,44.9117902 L35.9892333,35.7764145 L38.5486826,35.7764145 C40.8937902,35.7764145 42.8019011,37.6845275 42.8019011,40.0296378 L42.8019011,40.6585669 Z M28.1728103,31.077519 C25.8277026,31.077519 23.9199532,29.1694059 23.9199532,26.8242956 C23.9199532,24.4791853 25.8277026,22.5710723 28.1728103,22.5710723 L31.2903431,22.5710723 L31.2903431,31.077519 L28.1728103,31.077519 Z M38.5486826,31.077519 L35.9892333,31.077519 L35.9892333,22.5710723 L42.486714,22.5710723 C43.7843306,22.5710723 44.836159,21.5192426 44.836159,20.2216245 C44.836159,18.9240065 43.7843306,17.8721768 42.486714,17.8721768 L35.9892333,17.8721768 L35.9892333,11.3045667 C35.9892333,10.0069486 34.9374048,8.95511891 33.6397882,8.95511891 C32.3425331,8.95511891 31.2903431,10.0069486 31.2903431,11.3045667 L31.2903431,17.8721768 L28.1728103,17.8721768 C23.2368069,17.8721768 19.2210631,21.8879252 19.2210631,26.8242956 C19.2210631,31.7606661 23.2368069,35.7764145 28.1728103,35.7764145 L31.2903431,35.7764145 L31.2903431,44.9117902 L24.4570725,44.9117902 C23.1594559,44.9117902 22.1076275,45.9636199 22.1076275,47.261238 C22.1076275,48.5588561 23.1594559,49.6106858 24.4570725,49.6106858 L31.2903431,49.6106858 L31.2903431,56.4717961 C31.2903431,57.7690527 32.3425331,58.8212439 33.6397882,58.8212439 C34.9374048,58.8212439 35.9892333,57.7690527 35.9892333,56.4717961 L35.9892333,49.6106858 L38.5486826,49.6106858 C43.4850474,49.6106858 47.5007912,45.5949374 47.5007912,40.6585669 L47.5007912,40.0296378 C47.5007912,35.0936288 43.4850474,31.077519 38.5486826,31.077519 L38.5486826,31.077519 Z" id="Fill-1"></path>
                <path d="M33.5280269,62.71905 C17.4321595,62.71905 4.33743705,49.6239511 4.33743705,33.5284267 C4.33743705,17.4321794 17.4321595,4.33744201 33.5280269,4.33744201 C49.6238943,4.33744201 62.7189782,17.4321794 62.7189782,33.5284267 C62.7189782,49.6239511 49.6238943,62.71905 33.5280269,62.71905 M78.3648366,75.2979932 L58.7079333,55.6407061 C63.9016527,49.7341944 67.0564153,41.9933062 67.0564153,33.5284267 C67.0564153,15.0408031 52.0156294,0 33.5280269,0 C15.0407859,0 0,15.0408031 0,33.5284267 C0,52.0156889 15.0407859,67.056492 33.5280269,67.056492 C41.9928968,67.056492 49.7341375,63.9017258 55.6410039,58.7080005 L75.2979071,78.3649262 C75.7211687,78.7885497 76.2763606,79 76.8311911,79 C77.3863831,79 77.9412135,78.7885497 78.3648366,78.3649262 C79.2117211,77.5180406 79.2117211,76.1448788 78.3648366,75.2979932" id="Fill-3"></path>
            </g>
        </g>
    </g>
</svg>