<?xml version="1.0" encoding="UTF-8"?>
<svg width="112px" height="112px" viewBox="0 0 112 112" version="1.1" xmlns="http://www.w3.org/2000/svg" xmlns:xlink="http://www.w3.org/1999/xlink">
    <title>Find an NZ Post Store</title>
    <g id="Find-an-NZ-Post-Store" stroke="none" stroke-width="1" fill="none" fill-rule="evenodd">
        <g id="Group-38">
            <polygon id="Fill-7" fill="#FFFFFF" opacity="0" points="0 112 112 112 112 0 0 0"></polygon>
            <path d="M47.7834465,38 C45.6971921,38 44,39.7011988 44,41.7923782 L44,46.2076218 C44,48.2988012 45.6971921,50 47.7834465,50 L56,50 C55.4556799,48.586504 55.0405579,47.1104639 54.7660121,45.5851243 L48.4044779,45.5851243 L48.4044779,42.4148757 L54.4011745,42.4148757 C54.3824555,42.0241592 54.3714443,41.6312352 54.3714443,41.235736 C54.3714443,40.1382715 54.4510919,39.0595702 54.5916682,38 L47.7834465,38 Z" id="Fill-1" fill="#D8291C"></path>
            <path d="M57.1764036,86.4280658 L48.6073596,86.4280658 L48.6100152,59.7062532 L57.1764036,59.7062532 L57.1764036,86.4280658 Z M33.7962822,50.8515596 L33.7962822,86.4280658 L21.552352,86.4280658 L21.552352,60.4011872 C21.552352,57.7357496 22.8402883,55.2188998 24.9984825,53.6674901 L33.7962822,47.3429811 L33.7962822,50.8515596 Z M79.447648,65.8928422 L79.447648,86.4280658 L74.1259484,86.4280658 L74.1259484,65.4299339 C72.5508346,65.1198043 71.0295903,64.6607059 69.5735964,64.0697834 L69.5735964,86.4280658 L61.7287557,86.4280658 L61.7287557,59.7062532 L62.4859636,59.7062532 C60.9377845,58.3563896 59.5557663,56.8217437 58.3729135,55.134319 L47.8854325,55.134319 C45.7731411,55.134319 44.0550076,57.0358626 44.0550076,59.373264 L44.0550076,86.4280658 L38.3486343,86.4280658 L38.3486343,50.8515596 L38.3486343,42.8956321 L38.3486343,33.5719342 L54.7871775,33.5719342 C55.2481032,31.9774722 55.8603945,30.4481602 56.6088771,29 L36.0724583,29 C34.8156297,29 33.7962822,30.0233513 33.7962822,31.2859671 L33.7962822,41.720645 L22.3486343,49.9497456 L22.3486343,49.9497456 C18.9992413,52.357631 17,56.2647297 17,60.4011872 L17,88.7140329 C17,89.9766487 18.0189681,91 19.276176,91 L36.0724583,91 L81.723824,91 C82.9810319,91 84,89.9766487 84,88.7140329 L84,65.3983113 C82.5254173,65.699297 81.0026555,65.8638866 79.447648,65.8928422 L79.447648,65.8928422 Z" id="Fill-3" fill="#D8291C"></path>
            <path d="M63.5407164,40.7711664 C63.5407164,31.8217766 70.8217551,24.5407246 79.7711286,24.5407246 C88.7205022,24.5407246 96.0019193,31.8217766 96.0019193,40.7711664 C96.0019193,49.7205562 88.7205022,57.0016082 79.7711286,57.0016082 C70.8217551,57.0016082 63.5407164,49.7205562 63.5407164,40.7711664 M110.335069,68.1244915 L95.9663503,53.7557469 C98.8258664,50.1965755 100.542636,45.6815817 100.542636,40.7711664 C100.542636,29.3179453 91.2247072,20 79.7711286,20 C68.3179284,20 59,29.3179453 59,40.7711664 C59,52.2243875 68.3179284,61.5423328 79.7711286,61.5423328 C84.681535,61.5423328 89.1965206,59.8259389 92.7556854,56.9664176 L107.124404,71.3351622 C107.567502,71.7786397 108.148714,72 108.729547,72 C109.310759,72 109.891971,71.7786397 110.335069,71.3351622 C111.221644,70.4485858 111.221644,69.011068 110.335069,68.1244915" id="Fill-5" fill="#D8291C"></path>
        </g>
    </g>
</svg>