<svg height="40" viewBox="0 0 132 40" width="132" xmlns="http://www.w3.org/2000/svg"><g fill="none" fill-rule="evenodd"><g fill-rule="nonzero"><path d="m60.421992 10.5500003h1.6480088v18.8379733h-1.6753995l-10.7485782-16.5873684h-.0273908v16.5873684h-1.6480088v-18.8379733h2.2825607l10.1505473 15.6446709h.0273908zm5.7817262 17.2424634h11.7711654v1.5977925h-13.9487283v-1.4129051l11.5908431-15.8272757h-11.4128033v-1.5977925h13.5766709v1.412905zm21.2689004-17.2424634c4.3939293 0 6.8796379 2.1729978 6.8796379 6.0716114 0 4.0013289-2.5633157 6.1994348-6.8476821 6.1994348h-3.6954657v6.5669271h-3.7936158v-18.8379733zm-.3401015 9.2352405c2.5382074 0 3.423841-1.3079072 3.423841-3.086022 0-1.8260486-.9130243-3.0883046-3.423841-3.0883046h-3.3234084v6.1743266zm7.429735 2.800702c0-4.1611081 2.8509182-7.1170242 6.9595279-7.1170242 4.108609 0 6.957245 2.9559161 6.957245 7.1170242s-2.825811 7.1147416-6.957245 7.1147416c-4.1314353 0-6.9595279-2.9559161-6.9595279-7.1147416zm10.3057619 0c0-2.5907064-1.396928-4.1862163-3.346234-4.1862163-1.9493073 0-3.3234088 1.5977925-3.3234088 4.1862163s1.3695364 4.1862163 3.3234088 4.1862163c1.953872 0 3.346234-1.5977925 3.346234-4.1862163zm4.565121 2.6158145h3.531121c.157497 1.2029095 1.020305 1.9607196 2.563316 1.9607196 1.307907 0 2.172998-.5227064 2.172998-1.5681192 0-.8376997-.577488-1.1778013-1.805506-1.4654039l-2.068-.4565121c-2.668313-.5500972-4.081218-1.7781148-4.081218-3.9762207 0-2.7390729 2.38071-4.2387152 5.65162-4.2387152 3.423841 0 5.478146 1.7803973 5.546622 4.213607h-3.423841c-.130106-1.0203046-.913024-1.6753995-2.300821-1.6753995-1.202909 0-1.910503.5227063-1.910503 1.3855143 0 .8628079.550097 1.2827991 1.858004 1.5704017l1.96072.4199912c2.773311.5752053 4.133717 1.673117 4.133717 3.7913333 0 2.8007019-2.328212 4.5263661-5.884441 4.5263661-3.809594.0113645-5.825095-2.001854-5.955201-4.4875626zm18.664499 4.1862163c-2.850919 0-4.186217-1.2827991-4.186217-4.0036114v-6.8020309h-2.040609v-2.7984193h1.401492c.240543.0186166.477017-.070014.646067-.2421456.16905-.1721317.253395-.4101688.230437-.6503357v-2.5884238h3.478622v3.4809051h3.506013v2.7984193h-3.517426v6.8020309c0 .8376997.36521 1.1412803 1.125303 1.1412803h2.392123v2.8532009z" fill="#fff"/><path d="m5.20000155 23.9577617c0-.7098763 0-2.7870065 1.31932007-4.6039248 1.26453861-1.7370287 3.27319201-2.6523356 5.47814558-2.6523356 2.7208124 0 4.6609889 1.3877969 6.5007329 4.6062075 1.2759514 2.2346269 2.878309 4.2432803 5.756618 4.2432803 1.4901961.0203159 2.9257238-.5606536 3.9823377-1.6116837 1.0566138-1.0510302 1.6451813-2.4834595 1.6329542-3.9737423.0119709-1.4731519-.5697179-2.8891158-1.6139631-3.9282869-.3944853-.3858319-.8427031-.7125773-1.3307328-.9700883-.4884141-.2559136-1.0135536-.4345534-1.5567064-.5295541-.8735814-.1336927-1.7576437-.1864155-2.6409227-.1574967h-21.92856044c-1.9468543 6.683957-.28215329 13.8993901 4.39621187 19.0548166z" fill="#d8291c"/><path d="m15.4578292 23.5742915c2.3373422 4.2775188 5.4073863 5.8136821 8.6737306 5.8136821 5.4393421 0 9.6027328-4.2546931 9.6027328-9.3584988 0-2.5421613-1.0206758-4.977884-2.8326578-6.7609447-.6676424-.6527858-1.4331588-1.1972729-2.2688653-1.6137704-.82619-.4171037-1.7078295-.7138019-2.6180971-.8810684-1.1378563-.1822196-2.2901474-.2586314-3.4421015-.2282561h-20.19837947c-.27618984.5158587-.52955408 1.0408477-.76009271 1.5818146h20.95390698c1.3877969 0 2.2460397.0228256 3.1499338.191735.7637103.1417167 1.5041757.3882824 2.2003885.732702.6934814.3289504 1.3269185.7718163 1.8739823 1.3101899 1.5218986 1.4866539 2.3766657 3.5264016 2.369298 5.6539028 0 4.2889315-3.3964503 7.80864-8.0916776 7.80864-2.878309 0-5.2133686-1.31932-7.5164723-5.4051037-1.6365961-2.9125474-3.1567815-3.4535143-4.6107726-3.4535143-1.558989 0-2.81439733.6208565-3.59503308 1.7598543-.84454745 1.2303002-.84454745 2.6865739-.84454745 3.273192v11.602256c.49303311.3971655 1.0043267.7692229 1.53388078 1.1161721v-12.7595142c0-.789766.09130242-1.5658366.52955407-2.2300617.49759828-.7578102 1.28051658-1.1892142 2.36473288-1.1892142 1.4220353 0 2.2848432.7578102 3.5265562 3.0358057z" fill="#d8291c"/></g><path d="m20.0046901 0c-6.4195211-.00447418-12.44971958 3.07772163-16.20618081 8.28341757h18.77177901c1.302763-.02944913 2.6054801.0607096 3.891766.26934216 1.1218322.20055804 2.2088712.56187933 3.2275408 1.07280352 1.047249.52281085 2.0048989 1.20849745 2.8372229 2.03147905 2.2369004 2.2223418 3.4961451 5.2443649 3.4991655 8.3975407 0 6.3523663-5.190543 11.6113861-11.9172493 11.6113861-4.7637041 0-8.3518895-2.6409227-10.7668387-7.356693-.5866181-1.1526932-.7943311-1.5133377-1.3033422-1.5133377-.3743399 0-.6847682.2876026-.6847682.8148741v14.4166533c7.4107451 3.5599058 16.2450941 2.2220168 22.2694736-3.3725272 6.0243795-5.5945441 8.0113615-14.3058913 5.0087497-21.959413-3.0026119-7.65352174-10.3830548-12.6898626-18.6044927-12.6955256z" fill="#d8291c"/><path d="m11.3400898 23.6176602v14.4166532c-.7961465-.3830013-1.5655895-.8191969-2.30310375-1.3056247v-12.770927c0-.789766.09130242-1.5658366.52955407-2.2300617.49759828-.7578102 1.28051658-1.1892142 2.36473288-1.1892142 1.4106225 0 2.2825607.7578102 3.5265562 3.0358057 2.3373422 4.2775188 5.4073863 5.8136821 8.6737306 5.8136821 5.4393421 0 9.6027328-4.2546931 9.6027328-9.3584988-.0001722-2.5421613-1.0206758-4.977884-2.8326578-6.7609447-.6676424-.6527858-1.4331588-1.1972729-2.2688653-1.6137704-.82619-.4171037-1.7078295-.7138019-2.6180971-.8810684-1.1378563-.1822196-2.2901474-.2586314-3.4421015-.2282561h-20.19837947c.42337483-.78613859.8984294-1.5433283 1.4220353-2.26658275h18.77177897c1.3036639-.02808026 2.6071524.06360709 3.8940486.27390728 1.1218322.20055804 2.2088712.56187933 3.2275408 1.07280352 1.047249.52281085 2.0048989 1.20849745 2.8372229 2.03147905 2.2369004 2.2223418 3.4961451 5.2443649 3.4991655 8.3975407 0 6.3523663-5.190543 11.6113861-11.9172493 11.6113861-4.7637041 0-8.3518895-2.6409227-10.7668387-7.356693-.5866181-1.1526932-.7943311-1.5133377-1.3033422-1.5133377-.378905 0-.6984635.2876026-.6984635.8217218zm-2.99243708-2.8805916c.78063575-1.1412803 2.03604408-1.7598543 3.59503308-1.7598543 1.4539911 0 2.9673289.5409669 4.6107726 3.4535143 2.3031037 4.0857837 4.6381633 5.4051037 7.5164723 5.4051037 4.6952273 0 8.0917334-3.5197085 8.0917334-7.80864.0079681-2.1305443-.8486325-4.1732073-2.3739189-5.6607505-.5470638-.5383735-1.180501-.9812395-1.8739824-1.3101899-.6962128-.3444196-1.4366781-.5909853-2.2003884-.7327019-.9130243-.1689095-1.7621369-.1917351-3.1499338-.1917351h-20.94934188c-.31772373.7350368-.58986388 1.4889488-.81487416 2.2574525h21.92399534c.883279-.0289189 1.7673413.023804 2.6409227.1574967.5431527.0950006 1.0682923.2736405 1.5567064.529554.4880297.2575111.9362475.5842565 1.3307328.9700883 1.0436502 1.0361921 1.6268344 2.4485013 1.6183355 3.9191567.0099752 1.4895085-.580304 2.920278-1.6376412 3.9694554s-2.4926366 1.6283546-3.9820231 1.6068404c-2.8783091 0-4.4806667-2.0086534-5.7566181-4.2432803-1.8397439-3.2092804-3.7707902-4.5970773-6.509863-4.5970773-2.20038851 0-4.20904191.9130243-5.47814565 2.6523356-1.31932007 1.8260485-1.31932007 3.8940485-1.31932007 4.6039248v9.4863222c.70904176.7805839 1.47918242 1.5034018 2.30310373 2.161585v-11.6022559c.01369536-.5866181.01369536-2.0428918.85824281-3.2731921z" fill="#fff" fill-rule="nonzero"/></g></svg>