<?xml version="1.0" encoding="UTF-8"?>
<svg width="112px" height="112px" viewBox="0 0 112 112" version="1.1" xmlns="http://www.w3.org/2000/svg" xmlns:xlink="http://www.w3.org/1999/xlink">
    <title>Send it</title>
    <g id="Send-it" stroke="none" stroke-width="1" fill="none" fill-rule="evenodd">
        <g id="Group-7">
            <polygon id="Fill-1" fill="#FFFFFF" opacity="0" points="0 112 112 112 112 0 0 0"></polygon>
            <path d="M85.9571569,76.1278793 C85.9571569,76.4143305 85.5966609,76.919989 85.3250491,77.0142063 L67.3387789,83.2694033 L67.3387789,42.4789846 C67.5642319,42.4212384 67.7820554,42.3596932 67.9827124,42.28979 L85.9571569,36.0357328 L85.9571569,76.1278793 Z M63.2378986,38.223627 L51.6703643,36.0201565 L66.7642741,30.7686783 L79.9797901,33.2863334 L66.4728255,37.9861841 C65.6579902,38.269596 64.0859225,38.3850882 63.2378986,38.223627 L63.2378986,38.223627 Z M30.9767501,32.0789835 L44.4917257,27.3787529 C45.0532602,27.1834798 45.9749092,27.0679876 46.7710522,27.0679876 C47.1300222,27.0679876 47.4634334,27.0915419 47.7270341,27.1416898 L59.2903721,29.3447805 L44.1960808,34.5966385 L30.9767501,32.0789835 Z M86.4221776,29.8720938 L48.5872653,22.6640857 C46.9575945,22.3537003 44.5481843,22.5303579 42.9826017,23.0747671 L24.1189338,29.6350307 C22.0097462,30.3686345 20.4186047,32.5998383 20.4186047,34.8253436 L20.4186047,38.3163248 C21.9311619,37.9052635 23.5566364,38.0359521 24.9963315,38.7034518 L24.9963315,35.5813619 L62.3776674,42.7012312 C62.501266,42.7247855 62.6298239,42.7445407 62.761052,42.7623965 L62.761052,83.7230143 L25.3911604,76.603525 C25.2290326,76.5723725 24.9963315,76.2923798 24.9963315,76.1278793 L24.9963315,73.136858 C24.1052007,73.5498188 23.143878,73.7640873 22.1802665,73.7640873 C21.5870694,73.7640873 20.9950168,73.6808873 20.4186047,73.523985 L20.4186047,76.1278793 C20.4186047,78.4662174 22.2252808,80.6419546 24.5313107,81.081509 L62.3662231,88.2891372 C62.9075393,88.3924723 63.5346879,88.4418605 64.1889213,88.4418605 C65.5031104,88.4418605 66.9252575,88.2420285 67.9712681,87.8784558 L86.834173,81.3185721 C88.9437422,80.5845884 90.5348837,78.3533846 90.5348837,76.1278793 L90.5348837,34.8253436 C90.5348837,32.4870055 88.728589,30.3112682 86.4221776,29.8720938 L86.4221776,29.8720938 Z" id="Fill-3" fill="#D8291C"></path>
            <path d="M35.7304806,56.2269661 C35.7358656,56.2189113 35.7404814,56.2100894 35.7458664,56.201651 C35.822026,56.0838971 35.8885695,55.9596226 35.9428044,55.828444 C35.9466508,55.8188549 35.949728,55.8088823 35.9535744,55.7992932 C36.0043475,55.6711831 36.0451198,55.5380866 36.0724296,55.3996203 C36.0739682,55.3919491 36.0743528,55.3846614 36.0755068,55.3769901 C36.1012779,55.2396745 36.1162791,55.0985232 36.1162791,54.9535363 C36.1162791,54.808933 36.1012779,54.6677817 36.0755068,54.5300825 C36.0743528,54.5227948 36.0739682,54.5151236 36.0724296,54.5078359 C36.0451198,54.3693696 36.0043475,54.2362731 35.9535744,54.108163 C35.949728,54.0981904 35.9466508,54.0882177 35.9428044,54.0786287 C35.8885695,53.9478336 35.822026,53.8231756 35.7458664,53.7054217 C35.7404814,53.6973668 35.7358656,53.6885449 35.7304806,53.6801065 C35.6454742,53.5527635 35.5485438,53.4342425 35.4404586,53.3264612 L24.1053693,42.0228536 C23.2041472,41.1241651 21.742498,41.1241651 20.8416606,42.0228536 C19.9404385,42.9219258 19.9404385,44.3786988 20.8416606,45.277771 L28.2368361,52.6521571 L8.07530898,52.6521571 C6.80098168,52.6521571 5.76744186,53.6827914 5.76744186,54.9535363 C5.76744186,56.2246648 6.80098168,57.2549155 8.07530898,57.2549155 L28.2368361,57.2549155 L20.8416606,64.6296852 C19.9404385,65.5283738 19.9404385,66.9855304 20.8416606,67.884219 C21.2920793,68.3337551 21.8828933,68.5581395 22.4733226,68.5581395 C23.0641366,68.5581395 23.6545659,68.3337551 24.1053693,67.884219 L35.4404586,56.580995 L35.4408433,56.5806114 C35.5485438,56.4732137 35.6454742,56.3543091 35.7304806,56.2269661" id="Fill-5" fill="#D8291C"></path>
        </g>
    </g>
</svg>